<svg width="1918" height="1365" viewBox="0 0 1918 1365" fill="none" xmlns="http://www.w3.org/2000/svg">
<g filter="url(#filter0_d_61_100)">
<g clip-path="url(#clip0_61_100)">
<path d="M70 280C70 164.02 164.02 70 280 70H1908V1355H70V280Z" fill="white"/>
<rect x="70" y="70" width="1838" height="1285" fill="#F9EFE7"/>
<rect x="1080" y="582" width="735" height="60" fill="#FB6448" fill-opacity="0.8"/>
<rect x="455" y="744" width="555" height="60" fill="#FB6448" fill-opacity="0.8"/>
<path d="M179.52 543H216.96V545.28H210V582.48H233.88V545.28H226.8V543H264.36V545.28H257.28V624.72H264.36V627H226.8V624.72H233.88V585.6H210V624.72H216.96V627H179.52V624.72H186.6V545.28H179.52V543ZM285.723 561.6C281.483 561.6 278.443 560.52 276.603 558.36C274.843 556.2 273.963 553.52 273.963 550.32C273.963 547.12 274.923 544.48 276.843 542.4C278.843 540.32 281.843 539.28 285.843 539.28C289.843 539.28 292.883 540.24 294.963 542.16C297.043 544 298.083 546.68 298.083 550.2C298.083 553.64 297.083 556.4 295.083 558.48C293.083 560.56 289.963 561.6 285.723 561.6ZM267.603 569.88H297.003V624.84H303.723V627H268.083V624.84H274.683V572.04H267.603V569.88ZM315.289 645.72L313.849 643.92C318.809 639.68 322.049 636.36 323.569 633.96C325.089 631.64 325.849 629.08 325.849 626.28C325.849 623.4 324.609 621.8 322.129 621.48L316.369 626.64C314.529 626 312.849 624.88 311.329 623.28C309.889 621.6 309.169 619.48 309.169 616.92C309.169 614.28 310.089 612.04 311.929 610.2C313.849 608.36 316.449 607.44 319.729 607.44C323.089 607.44 325.809 608.72 327.889 611.28C329.969 613.84 331.009 617.24 331.009 621.48C331.009 625.72 329.769 629.8 327.289 633.72C324.809 637.64 320.809 641.64 315.289 645.72ZM360.938 543H397.538V545.28H390.938V624.72H397.538V627H360.938V624.72H367.538V545.28H360.938V543ZM410.554 572.76L409.474 571.08C416.914 566.2 420.634 561.32 420.634 556.44C420.634 553.88 419.554 552.44 417.394 552.12L412.354 556.8C410.754 556.24 409.274 555.24 407.914 553.8C406.634 552.28 405.994 550.36 405.994 548.04C405.994 545.72 406.914 543.76 408.754 542.16C410.594 540.48 412.994 539.64 415.954 539.64C418.994 539.64 421.474 540.68 423.394 542.76C425.394 544.76 426.394 547.56 426.394 551.16C426.394 559 421.114 566.2 410.554 572.76ZM430.622 569.88H459.542V580.92C462.182 572.76 467.982 568.68 476.942 568.68C485.982 568.68 491.462 573 493.382 581.64C496.182 573 502.062 568.68 511.022 568.68C522.782 568.68 528.662 575.36 528.662 588.72V624.84H535.382V627H502.142V624.84H506.342V585.84C506.342 579.76 505.822 576.2 504.782 575.16C504.302 574.68 503.662 574.44 502.862 574.44C500.542 574.44 498.502 576 496.742 579.12C494.982 582.24 494.102 586.2 494.102 591V624.84H498.422V627H467.582V624.84H471.782V585.84C471.782 579.76 471.262 576.2 470.222 575.16C469.742 574.68 469.102 574.44 468.302 574.44C466.062 574.44 464.022 576.16 462.182 579.6C460.422 582.96 459.542 587 459.542 591.72V624.84H463.862V627H430.622V624.84H437.222V572.04H430.622V569.88ZM643.188 583.56C643.188 600.04 638.548 611.52 629.268 618C620.708 624 608.948 627 593.988 627H560.028V624.72H567.948V545.28H560.028V543H597.108C612.468 543 623.988 546.16 631.668 552.48C639.348 558.72 643.188 569.08 643.188 583.56ZM591.348 624.72H595.908C603.988 624.72 609.748 621.88 613.188 616.2C616.708 610.44 618.468 600.84 618.468 587.4V580.44C618.468 562.44 615.028 551.6 608.148 547.92C604.868 546.16 600.228 545.28 594.228 545.28H591.348V624.72ZM680.854 628.2C670.534 628.2 662.774 625.56 657.574 620.28C652.454 614.92 649.894 607.52 649.894 598.08C649.894 588.56 652.774 581.28 658.534 576.24C664.374 571.2 671.774 568.68 680.734 568.68C698.894 568.68 707.614 577.8 706.894 596.04H673.054V600.72C673.054 608.56 674.054 614.48 676.054 618.48C678.054 622.48 681.534 624.48 686.494 624.48C695.774 624.48 701.854 619.52 704.734 609.6L706.894 609.96C705.374 615.72 702.614 620.2 698.614 623.4C694.694 626.6 688.774 628.2 680.854 628.2ZM673.174 593.64H685.534V587.76C685.534 581.28 685.134 576.88 684.334 574.56C683.614 572.16 682.094 570.96 679.774 570.96C677.534 570.96 675.854 572.24 674.734 574.8C673.694 577.28 673.174 581.6 673.174 587.76V593.64ZM742.729 628.2C732.409 628.2 724.649 625.56 719.449 620.28C714.329 614.92 711.769 607.52 711.769 598.08C711.769 588.56 714.649 581.28 720.409 576.24C726.249 571.2 733.649 568.68 742.609 568.68C760.769 568.68 769.489 577.8 768.769 596.04H734.929V600.72C734.929 608.56 735.929 614.48 737.929 618.48C739.929 622.48 743.409 624.48 748.369 624.48C757.649 624.48 763.729 619.52 766.609 609.6L768.769 609.96C767.249 615.72 764.489 620.2 760.489 623.4C756.569 626.6 750.649 628.2 742.729 628.2ZM735.049 593.64H747.409V587.76C747.409 581.28 747.009 576.88 746.209 574.56C745.489 572.16 743.969 570.96 741.649 570.96C739.409 570.96 737.729 572.24 736.609 574.8C735.569 577.28 735.049 581.6 735.049 587.76V593.64ZM816.844 594.72C816.844 586.48 816.444 580.96 815.644 578.16C814.844 575.28 813.284 573.84 810.964 573.84C808.644 573.84 806.564 575.36 804.724 578.4C802.884 581.36 801.964 585.36 801.964 590.4V612.36C801.964 615.8 802.644 618.72 804.004 621.12C805.364 623.52 807.364 624.72 810.004 624.72C812.644 624.72 814.444 622.96 815.404 619.44C816.364 615.92 816.844 609.76 816.844 600.96V594.72ZM801.724 569.88V579.36C804.844 572.24 810.364 568.68 818.284 568.68C825.164 568.68 830.484 571.16 834.244 576.12C838.084 581.08 840.004 588.6 840.004 598.68C840.004 608.76 837.924 616.2 833.764 621C829.684 625.8 823.524 628.2 815.284 628.2C811.444 628.2 808.564 627.72 806.644 626.76C804.724 625.8 803.164 624.32 801.964 622.32V653.4H817.444V655.56H773.044V653.4H779.644V572.04H773.284V569.88H801.724ZM872.391 598.8H875.871V589.56C875.871 581.96 875.431 576.88 874.551 574.32C873.751 571.68 872.151 570.36 869.751 570.36C868.311 570.36 866.991 570.76 865.791 571.56C864.671 572.28 864.111 573.32 864.111 574.68C864.111 575.96 864.351 577.28 864.831 578.64H867.831C868.471 580.32 868.791 582.36 868.791 584.76C868.791 587.08 867.791 589.12 865.791 590.88C863.791 592.56 861.271 593.4 858.231 593.4C851.351 593.4 847.911 590.08 847.911 583.44C847.911 573.6 856.271 568.68 872.991 568.68C882.511 568.68 889.071 570.32 892.671 573.6C896.351 576.8 898.191 582.72 898.191 591.36V615.72C898.191 619.88 899.351 621.96 901.671 621.96C904.391 621.96 905.991 617.84 906.471 609.6L908.271 609.72C907.951 616.76 906.631 621.6 904.311 624.24C901.991 626.88 898.191 628.2 892.911 628.2C883.311 628.2 877.791 625.24 876.351 619.32C875.311 622.36 873.751 624.6 871.671 626.04C869.591 627.48 866.551 628.2 862.551 628.2C850.711 628.2 844.791 623.36 844.791 613.68C844.791 608 847.031 604.12 851.511 602.04C856.071 599.88 863.031 598.8 872.391 598.8ZM867.591 613.56C867.591 617.72 867.791 620.4 868.191 621.6C868.671 622.8 869.511 623.4 870.711 623.4C871.991 623.4 873.151 622.4 874.191 620.4C875.311 618.32 875.871 615.48 875.871 611.88V600.72H875.031C870.071 600.72 867.591 604.36 867.591 611.64V613.56ZM948.69 627V624.84H954.21L940.65 597L938.37 597.6V624.84H943.89V627H909.45V624.84H916.05V539.16H908.97V537H938.37V595.2L940.29 594.48L967.29 572.04H956.01V569.88H979.65V572.04H971.25L956.97 584.16L977.73 624.84H982.05V627H948.69ZM992.984 645.72L991.544 643.92C996.504 639.68 999.744 636.36 1001.26 633.96C1002.78 631.64 1003.54 629.08 1003.54 626.28C1003.54 623.4 1002.3 621.8 999.824 621.48L994.064 626.64C992.224 626 990.544 624.88 989.024 623.28C987.584 621.6 986.864 619.48 986.864 616.92C986.864 614.28 987.784 612.04 989.624 610.2C991.544 608.36 994.144 607.44 997.424 607.44C1000.78 607.44 1003.5 608.72 1005.58 611.28C1007.66 613.84 1008.7 617.24 1008.7 621.48C1008.7 625.72 1007.46 629.8 1004.98 633.72C1002.5 637.64 998.504 641.64 992.984 645.72ZM1086.51 602.76L1096.47 568.2L1089.27 545.28H1082.43V543H1119.63V545.28H1112.55L1130.43 602.04L1144.83 545.28H1132.71V543H1156.71V545.28H1148.79L1126.71 628.2H1116.03L1098.27 573.96L1082.67 628.2H1072.23L1041.99 545.28H1036.35V543H1075.35V545.28H1066.95L1086.51 602.76ZM1180.54 628.2C1170.22 628.2 1162.46 625.56 1157.26 620.28C1152.14 614.92 1149.58 607.52 1149.58 598.08C1149.58 588.56 1152.46 581.28 1158.22 576.24C1164.06 571.2 1171.46 568.68 1180.42 568.68C1198.58 568.68 1207.3 577.8 1206.58 596.04H1172.74V600.72C1172.74 608.56 1173.74 614.48 1175.74 618.48C1177.74 622.48 1181.22 624.48 1186.18 624.48C1195.46 624.48 1201.54 619.52 1204.42 609.6L1206.58 609.96C1205.06 615.72 1202.3 620.2 1198.3 623.4C1194.38 626.6 1188.46 628.2 1180.54 628.2ZM1172.86 593.64H1185.22V587.76C1185.22 581.28 1184.82 576.88 1184.02 574.56C1183.3 572.16 1181.78 570.96 1179.46 570.96C1177.22 570.96 1175.54 572.24 1174.42 574.8C1173.38 577.28 1172.86 581.6 1172.86 587.76V593.64ZM1254.66 594.72C1254.66 586.48 1254.26 580.96 1253.46 578.16C1252.66 575.28 1251.1 573.84 1248.78 573.84C1246.46 573.84 1244.38 575.28 1242.54 578.16C1240.7 581.04 1239.78 585 1239.78 590.04V612.36C1239.78 615.8 1240.46 618.72 1241.82 621.12C1243.26 623.52 1245.26 624.72 1247.82 624.72C1250.46 624.72 1252.26 622.96 1253.22 619.44C1254.18 615.92 1254.66 609.76 1254.66 600.96V594.72ZM1239.78 537V579C1242.82 572.12 1248.02 568.68 1255.38 568.68C1270.34 568.68 1277.82 578.64 1277.82 598.56C1277.82 608.72 1275.74 616.2 1271.58 621C1267.5 625.8 1261.34 628.2 1253.1 628.2C1248.94 628.2 1245.74 627.56 1243.5 626.28C1241.34 625 1239.86 622.88 1239.06 619.92L1238.22 627H1210.86V624.84H1217.46V539.16H1210.86V537H1239.78ZM1387.45 583.56C1387.45 600.04 1382.81 611.52 1373.53 618C1364.97 624 1353.21 627 1338.25 627H1304.29V624.72H1312.21V545.28H1304.29V543H1341.37C1356.73 543 1368.25 546.16 1375.93 552.48C1383.61 558.72 1387.45 569.08 1387.45 583.56ZM1335.61 624.72H1340.17C1348.25 624.72 1354.01 621.88 1357.45 616.2C1360.97 610.44 1362.73 600.84 1362.73 587.4V580.44C1362.73 562.44 1359.29 551.6 1352.41 547.92C1349.13 546.16 1344.49 545.28 1338.49 545.28H1335.61V624.72ZM1425.11 628.2C1414.79 628.2 1407.03 625.56 1401.83 620.28C1396.71 614.92 1394.15 607.52 1394.15 598.08C1394.15 588.56 1397.03 581.28 1402.79 576.24C1408.63 571.2 1416.03 568.68 1424.99 568.68C1443.15 568.68 1451.87 577.8 1451.15 596.04H1417.31V600.72C1417.31 608.56 1418.31 614.48 1420.31 618.48C1422.31 622.48 1425.79 624.48 1430.75 624.48C1440.03 624.48 1446.11 619.52 1448.99 609.6L1451.15 609.96C1449.63 615.72 1446.87 620.2 1442.87 623.4C1438.95 626.6 1433.03 628.2 1425.11 628.2ZM1417.43 593.64H1429.79V587.76C1429.79 581.28 1429.39 576.88 1428.59 574.56C1427.87 572.16 1426.35 570.96 1424.03 570.96C1421.79 570.96 1420.11 572.24 1418.99 574.8C1417.95 577.28 1417.43 581.6 1417.43 587.76V593.64ZM1457.01 628.2V606.72H1458.45C1460.53 613.68 1463.33 618.56 1466.85 621.36C1470.37 624.16 1474.77 625.56 1480.05 625.56C1488.21 625.56 1492.29 622.96 1492.29 617.76C1492.29 615.52 1491.29 613.84 1489.29 612.72C1486.17 610.96 1482.17 609.6 1477.29 608.64C1471.85 607.2 1467.29 605.28 1463.61 602.88C1459.21 600 1457.01 595.44 1457.01 589.2C1457.01 582.96 1458.93 578 1462.77 574.32C1466.61 570.56 1471.73 568.68 1478.13 568.68C1482.05 568.68 1486.09 569.6 1490.25 571.44C1491.77 572.08 1492.93 572.4 1493.73 572.4C1494.53 572.4 1495.21 572.12 1495.77 571.56C1496.33 571 1497.01 569.96 1497.81 568.44H1499.13V586.8H1497.69C1493.61 576.4 1487.29 571.2 1478.73 571.2C1474.97 571.2 1472.17 571.88 1470.33 573.24C1468.49 574.52 1467.57 576.16 1467.57 578.16C1467.57 579.36 1467.85 580.32 1468.41 581.04C1468.97 581.68 1469.41 582.16 1469.73 582.48C1470.05 582.8 1470.57 583.16 1471.29 583.56C1472.01 583.88 1472.61 584.16 1473.09 584.4C1473.57 584.56 1474.29 584.8 1475.25 585.12C1476.29 585.44 1477.05 585.64 1477.53 585.72C1482.97 587.08 1486.89 588.28 1489.29 589.32C1491.69 590.28 1493.97 591.48 1496.13 592.92C1500.53 595.96 1502.73 600.88 1502.73 607.68C1502.73 614.4 1500.73 619.52 1496.73 623.04C1492.73 626.48 1487.25 628.2 1480.29 628.2C1475.33 628.2 1470.53 627.04 1465.89 624.72C1464.93 624.08 1464.17 623.76 1463.61 623.76C1461.85 623.76 1460.13 625.24 1458.45 628.2H1457.01ZM1523.93 561.6C1519.69 561.6 1516.65 560.52 1514.81 558.36C1513.05 556.2 1512.17 553.52 1512.17 550.32C1512.17 547.12 1513.13 544.48 1515.05 542.4C1517.05 540.32 1520.05 539.28 1524.05 539.28C1528.05 539.28 1531.09 540.24 1533.17 542.16C1535.25 544 1536.29 546.68 1536.29 550.2C1536.29 553.64 1535.29 556.4 1533.29 558.48C1531.29 560.56 1528.17 561.6 1523.93 561.6ZM1505.81 569.88H1535.21V624.84H1541.93V627H1506.29V624.84H1512.89V572.04H1505.81V569.88ZM1592.49 563.64L1595.85 561.6C1596.33 559.12 1595.37 557.88 1592.97 557.88C1589.53 557.88 1587.81 560.52 1587.81 565.8C1587.81 567.88 1588.09 570.28 1588.65 573C1594.73 577.08 1597.77 582.32 1597.77 588.72C1597.77 595.04 1595.57 599.96 1591.17 603.48C1586.77 607 1580.81 608.76 1573.29 608.76C1570.17 608.76 1566.93 608.44 1563.57 607.8C1560.05 610.04 1558.29 611.72 1558.29 612.84C1558.29 613.96 1560.85 614.52 1565.97 614.52H1578.21C1596.37 614.52 1605.45 621.04 1605.45 634.08C1605.45 641.12 1602.69 646.68 1597.17 650.76C1591.73 654.92 1583.21 657 1571.61 657C1551.85 657 1541.97 652.72 1541.97 644.16C1541.97 639.52 1545.05 636.32 1551.21 634.56L1558.41 637.8C1557.77 640.12 1557.45 642.32 1557.45 644.4C1557.45 651.28 1562.57 654.72 1572.81 654.72C1579.05 654.72 1583.85 653.56 1587.21 651.24C1590.57 648.92 1592.25 646.04 1592.25 642.6C1592.25 639.16 1591.21 636.84 1589.13 635.64C1587.13 634.52 1583.09 633.96 1577.01 633.96H1565.37C1558.89 633.96 1554.25 632.88 1551.45 630.72C1548.65 628.56 1547.25 625.92 1547.25 622.8C1547.25 619.6 1548.25 616.96 1550.25 614.88C1552.25 612.72 1555.81 610.08 1560.93 606.96C1551.65 604.32 1547.01 598.24 1547.01 588.72C1547.01 582.72 1549.17 577.88 1553.49 574.2C1557.81 570.52 1564.29 568.68 1572.93 568.68C1578.13 568.68 1582.57 569.68 1586.25 571.68C1585.77 569.52 1585.53 567.56 1585.53 565.8C1585.53 561.32 1586.73 558.08 1589.13 556.08C1591.53 554.08 1594.21 553.08 1597.17 553.08C1600.13 553.08 1602.49 553.88 1604.25 555.48C1606.09 557 1607.01 559.12 1607.01 561.84C1607.01 564.56 1606.29 566.6 1604.85 567.96C1603.41 569.24 1601.65 569.88 1599.57 569.88C1597.57 569.88 1595.89 569.36 1594.53 568.32C1593.25 567.2 1592.57 565.64 1592.49 563.64ZM1567.05 586.08V592.56C1567.05 597.92 1567.49 601.56 1568.37 603.48C1569.33 605.4 1570.73 606.36 1572.57 606.36C1574.49 606.36 1575.85 605.44 1576.65 603.6C1577.53 601.68 1577.97 597.8 1577.97 591.96V586.08C1577.97 579.84 1577.57 575.76 1576.77 573.84C1575.97 571.84 1574.61 570.84 1572.69 570.84C1570.85 570.84 1569.45 571.88 1568.49 573.96C1567.53 575.96 1567.05 580 1567.05 586.08ZM1607.31 569.88H1636.23V580.92C1637.51 577.24 1639.47 574.28 1642.11 572.04C1644.75 569.8 1648.75 568.68 1654.11 568.68C1666.51 568.68 1672.71 575.36 1672.71 588.72V624.84H1679.43V627H1645.47V624.84H1650.39V585.84C1650.39 581.04 1650.07 577.96 1649.43 576.6C1648.79 575.16 1647.63 574.44 1645.95 574.44C1643.39 574.44 1641.11 576.12 1639.11 579.48C1637.19 582.84 1636.23 586.92 1636.23 591.72V624.84H1641.39V627H1607.31V624.84H1613.91V572.04H1607.31V569.88ZM1712.57 628.2C1702.25 628.2 1694.49 625.56 1689.29 620.28C1684.17 614.92 1681.61 607.52 1681.61 598.08C1681.61 588.56 1684.49 581.28 1690.25 576.24C1696.09 571.2 1703.49 568.68 1712.45 568.68C1730.61 568.68 1739.33 577.8 1738.61 596.04H1704.77V600.72C1704.77 608.56 1705.77 614.48 1707.77 618.48C1709.77 622.48 1713.25 624.48 1718.21 624.48C1727.49 624.48 1733.57 619.52 1736.45 609.6L1738.61 609.96C1737.09 615.72 1734.33 620.2 1730.33 623.4C1726.41 626.6 1720.49 628.2 1712.57 628.2ZM1704.89 593.64H1717.25V587.76C1717.25 581.28 1716.85 576.88 1716.05 574.56C1715.33 572.16 1713.81 570.96 1711.49 570.96C1709.25 570.96 1707.57 572.24 1706.45 574.8C1705.41 577.28 1704.89 581.6 1704.89 587.76V593.64ZM1782.97 573.24C1780.01 573.24 1777.41 575.16 1775.17 579C1772.93 582.84 1771.81 587.4 1771.81 592.68V624.84H1780.33V627H1742.89V624.84H1749.49V572.04H1742.89V569.88H1771.81V581.4C1772.85 577.32 1774.85 574.2 1777.81 572.04C1780.77 569.8 1784.13 568.68 1787.89 568.68C1791.65 568.68 1794.69 569.76 1797.01 571.92C1799.41 574 1800.61 577 1800.61 580.92C1800.61 584.76 1799.73 587.72 1797.97 589.8C1796.21 591.88 1793.49 592.92 1789.81 592.92C1786.21 592.92 1783.53 591.72 1781.77 589.32C1780.09 586.92 1779.89 583.6 1781.17 579.36H1785.49C1787.49 575.28 1786.65 573.24 1782.97 573.24ZM207 760.8H210.48V751.56C210.48 743.96 210.04 738.88 209.16 736.32C208.36 733.68 206.76 732.36 204.36 732.36C202.92 732.36 201.6 732.76 200.4 733.56C199.28 734.28 198.72 735.32 198.72 736.68C198.72 737.96 198.96 739.28 199.44 740.64H202.44C203.08 742.32 203.4 744.36 203.4 746.76C203.4 749.08 202.4 751.12 200.4 752.88C198.4 754.56 195.88 755.4 192.84 755.4C185.96 755.4 182.52 752.08 182.52 745.44C182.52 735.6 190.88 730.68 207.6 730.68C217.12 730.68 223.68 732.32 227.28 735.6C230.96 738.8 232.8 744.72 232.8 753.36V777.72C232.8 781.88 233.96 783.96 236.28 783.96C239 783.96 240.6 779.84 241.08 771.6L242.88 771.72C242.56 778.76 241.24 783.6 238.92 786.24C236.6 788.88 232.8 790.2 227.52 790.2C217.92 790.2 212.4 787.24 210.96 781.32C209.92 784.36 208.36 786.6 206.28 788.04C204.2 789.48 201.16 790.2 197.16 790.2C185.32 790.2 179.4 785.36 179.4 775.68C179.4 770 181.64 766.12 186.12 764.04C190.68 761.88 197.64 760.8 207 760.8ZM202.2 775.56C202.2 779.72 202.4 782.4 202.8 783.6C203.28 784.8 204.12 785.4 205.32 785.4C206.6 785.4 207.76 784.4 208.8 782.4C209.92 780.32 210.48 777.48 210.48 773.88V762.72H209.64C204.68 762.72 202.2 766.36 202.2 773.64V775.56ZM244.299 731.88H273.219V742.92C274.499 739.24 276.459 736.28 279.099 734.04C281.739 731.8 285.739 730.68 291.099 730.68C303.499 730.68 309.699 737.36 309.699 750.72V786.84H316.419V789H282.459V786.84H287.379V747.84C287.379 743.04 287.059 739.96 286.419 738.6C285.779 737.16 284.619 736.44 282.939 736.44C280.379 736.44 278.099 738.12 276.099 741.48C274.179 744.84 273.219 748.92 273.219 753.72V786.84H278.379V789H244.299V786.84H250.899V734.04H244.299V731.88ZM342.365 764.16C342.365 772.56 342.805 778.16 343.685 780.96C344.565 783.68 346.165 785.04 348.485 785.04C350.885 785.04 352.925 784 354.605 781.92C356.365 779.84 357.245 776.76 357.245 772.68V746.52C357.245 743.08 356.565 740.16 355.205 737.76C353.845 735.36 351.845 734.16 349.205 734.16C346.565 734.16 344.765 735.92 343.805 739.44C342.845 742.96 342.365 749.12 342.365 757.92V764.16ZM358.805 789L357.485 780.6C354.765 787 349.245 790.2 340.925 790.2C334.045 790.2 328.685 787.72 324.845 782.76C321.085 777.8 319.205 770.4 319.205 760.56C319.205 740.64 327.125 730.68 342.965 730.68C350.005 730.68 354.645 732.64 356.885 736.56V701.16H349.565V699H379.565V786.84H385.445V789H358.805ZM516.157 745.56C516.157 762.04 511.517 773.52 502.237 780C493.677 786 481.917 789 466.957 789H432.997V786.72H440.917V707.28H432.997V705H470.077C485.437 705 496.957 708.16 504.637 714.48C512.317 720.72 516.157 731.08 516.157 745.56ZM464.317 786.72H468.877C476.957 786.72 482.717 783.88 486.157 778.2C489.677 772.44 491.437 762.84 491.437 749.4V742.44C491.437 724.44 487.997 713.6 481.117 709.92C477.837 708.16 473.197 707.28 467.197 707.28H464.317V786.72ZM553.823 790.2C543.503 790.2 535.743 787.56 530.543 782.28C525.423 776.92 522.863 769.52 522.863 760.08C522.863 750.56 525.743 743.28 531.503 738.24C537.343 733.2 544.743 730.68 553.703 730.68C571.863 730.68 580.583 739.8 579.863 758.04H546.023V762.72C546.023 770.56 547.023 776.48 549.023 780.48C551.023 784.48 554.503 786.48 559.463 786.48C568.743 786.48 574.823 781.52 577.703 771.6L579.863 771.96C578.343 777.72 575.583 782.2 571.583 785.4C567.663 788.6 561.743 790.2 553.823 790.2ZM546.143 755.64H558.503V749.76C558.503 743.28 558.103 738.88 557.303 736.56C556.583 734.16 555.063 732.96 552.742 732.96C550.503 732.96 548.823 734.24 547.703 736.8C546.663 739.28 546.143 743.6 546.143 749.76V755.64ZM579.891 734.04V731.88H615.771V734.04H608.211L622.611 773.88L635.571 734.04H627.531V731.88H643.731V734.04H638.451L620.691 789H607.011L584.811 734.04H579.891ZM673.471 790.2C663.151 790.2 655.391 787.56 650.191 782.28C645.071 776.92 642.511 769.52 642.511 760.08C642.511 750.56 645.391 743.28 651.151 738.24C656.991 733.2 664.391 730.68 673.351 730.68C691.511 730.68 700.231 739.8 699.511 758.04H665.671V762.72C665.671 770.56 666.671 776.48 668.671 780.48C670.671 784.48 674.151 786.48 679.111 786.48C688.391 786.48 694.471 781.52 697.351 771.6L699.511 771.96C697.991 777.72 695.231 782.2 691.231 785.4C687.311 788.6 681.391 790.2 673.471 790.2ZM665.791 755.64H678.151V749.76C678.151 743.28 677.751 738.88 676.951 736.56C676.231 734.16 674.711 732.96 672.391 732.96C670.151 732.96 668.471 734.24 667.351 736.8C666.311 739.28 665.791 743.6 665.791 749.76V755.64ZM703.306 699H732.706V786.84H739.426V789H703.786V786.84H710.386V701.16H703.306V699ZM780.515 765.36V755.16C780.515 747.4 780.075 741.76 779.195 738.24C778.395 734.64 776.475 732.84 773.435 732.84C771.675 732.84 770.235 733.36 769.115 734.4C768.075 735.36 767.315 737 766.835 739.32C766.115 742.92 765.755 748.4 765.755 755.76V765.12C765.755 773.84 765.995 779.08 766.475 780.84C767.035 782.6 767.595 784.04 768.155 785.16C769.035 787.08 770.755 788.04 773.315 788.04C776.435 788.04 778.475 786.24 779.435 782.64C780.155 780.08 780.515 774.32 780.515 765.36ZM773.075 790.2C763.075 790.2 755.515 787.64 750.395 782.52C745.275 777.4 742.715 770.08 742.715 760.56C742.715 750.96 745.435 743.6 750.875 738.48C756.395 733.28 764.115 730.68 774.035 730.68C783.955 730.68 791.355 733.08 796.235 737.88C801.115 742.6 803.555 749.84 803.555 759.6C803.555 780 793.395 790.2 773.075 790.2ZM850.711 756.72C850.711 748.48 850.311 742.96 849.511 740.16C848.711 737.28 847.151 735.84 844.831 735.84C842.511 735.84 840.431 737.36 838.591 740.4C836.751 743.36 835.831 747.36 835.831 752.4V774.36C835.831 777.8 836.511 780.72 837.871 783.12C839.231 785.52 841.231 786.72 843.871 786.72C846.511 786.72 848.311 784.96 849.271 781.44C850.231 777.92 850.711 771.76 850.711 762.96V756.72ZM835.591 731.88V741.36C838.711 734.24 844.231 730.68 852.151 730.68C859.031 730.68 864.351 733.16 868.111 738.12C871.951 743.08 873.871 750.6 873.871 760.68C873.871 770.76 871.791 778.2 867.631 783C863.551 787.8 857.391 790.2 849.151 790.2C845.311 790.2 842.431 789.72 840.511 788.76C838.591 787.8 837.031 786.32 835.831 784.32V815.4H851.311V817.56H806.911V815.4H813.511V734.04H807.151V731.88H835.591ZM909.018 790.2C898.698 790.2 890.938 787.56 885.738 782.28C880.618 776.92 878.058 769.52 878.058 760.08C878.058 750.56 880.938 743.28 886.698 738.24C892.538 733.2 899.938 730.68 908.898 730.68C927.058 730.68 935.778 739.8 935.058 758.04H901.218V762.72C901.218 770.56 902.218 776.48 904.218 780.48C906.218 784.48 909.698 786.48 914.658 786.48C923.938 786.48 930.018 781.52 932.898 771.6L935.058 771.96C933.538 777.72 930.778 782.2 926.778 785.4C922.858 788.6 916.938 790.2 909.018 790.2ZM901.338 755.64H913.698V749.76C913.698 743.28 913.298 738.88 912.498 736.56C911.778 734.16 910.258 732.96 907.938 732.96C905.698 732.96 904.018 734.24 902.898 736.8C901.858 739.28 901.338 743.6 901.338 749.76V755.64ZM979.413 735.24C976.453 735.24 973.853 737.16 971.613 741C969.373 744.84 968.253 749.4 968.253 754.68V786.84H976.773V789H939.333V786.84H945.933V734.04H939.333V731.88H968.253V743.4C969.293 739.32 971.293 736.2 974.253 734.04C977.213 731.8 980.573 730.68 984.333 730.68C988.093 730.68 991.133 731.76 993.453 733.92C995.853 736 997.053 739 997.053 742.92C997.053 746.76 996.173 749.72 994.413 751.8C992.653 753.88 989.933 754.92 986.253 754.92C982.653 754.92 979.973 753.72 978.213 751.32C976.533 748.92 976.333 745.6 977.613 741.36H981.933C983.933 737.28 983.093 735.24 979.413 735.24Z" fill="black"/>
<line x1="1756" y1="1181" x2="1756" y2="1331" stroke="black" stroke-width="2"/>
<path d="M1770.76 1209.78C1770.76 1208.42 1770.93 1207.16 1771.26 1206.01C1771.62 1204.87 1772.1 1203.9 1772.7 1203.08L1775.13 1204.04C1774.74 1204.58 1774.42 1205.15 1774.14 1205.74C1773.89 1206.34 1773.69 1206.97 1773.54 1207.64C1773.42 1208.31 1773.35 1209.02 1773.35 1209.78C1773.35 1211.04 1773.56 1211.95 1773.98 1212.51C1774.39 1213.07 1774.94 1213.35 1775.61 1213.35C1776.2 1213.35 1776.65 1213.16 1776.95 1212.78C1777.27 1212.39 1777.54 1211.7 1777.74 1210.71L1778.3 1208C1778.62 1206.45 1779.15 1205.29 1779.9 1204.52C1780.66 1203.75 1781.66 1203.37 1782.93 1203.37C1783.98 1203.37 1784.9 1203.65 1785.69 1204.21C1786.47 1204.77 1787.08 1205.55 1787.51 1206.56C1787.94 1207.57 1788.16 1208.74 1788.16 1210.09C1788.16 1211.29 1787.98 1212.4 1787.63 1213.42C1787.3 1214.45 1786.81 1215.3 1786.17 1215.99L1783.86 1215.03C1784.44 1214.34 1784.86 1213.59 1785.14 1212.78C1785.42 1211.96 1785.57 1211.05 1785.57 1210.04C1785.57 1208.9 1785.34 1208.02 1784.9 1207.38C1784.46 1206.75 1783.86 1206.44 1783.1 1206.44C1782.5 1206.44 1782.03 1206.63 1781.68 1207.02C1781.33 1207.42 1781.06 1208.09 1780.86 1209.03L1780.34 1211.72C1780.02 1213.32 1779.49 1214.5 1778.75 1215.27C1778.03 1216.04 1777.06 1216.42 1775.82 1216.42C1774.82 1216.42 1773.93 1216.15 1773.16 1215.61C1772.41 1215.06 1771.82 1214.3 1771.38 1213.3C1770.97 1212.31 1770.76 1211.14 1770.76 1209.78ZM1770.76 1227.21C1770.76 1225.45 1771.11 1223.94 1771.82 1222.68C1772.54 1221.43 1773.54 1220.47 1774.84 1219.8C1776.15 1219.12 1777.7 1218.79 1779.47 1218.79C1781.25 1218.79 1782.78 1219.12 1784.08 1219.8C1785.38 1220.47 1786.38 1221.43 1787.08 1222.68C1787.8 1223.94 1788.16 1225.45 1788.16 1227.21C1788.16 1228.4 1787.99 1229.46 1787.66 1230.4C1787.32 1231.36 1786.82 1232.19 1786.17 1232.88L1783.72 1231.87C1784.33 1231.12 1784.76 1230.39 1785.02 1229.68C1785.29 1229 1785.42 1228.2 1785.42 1227.31C1785.42 1225.6 1784.9 1224.28 1783.86 1223.37C1782.84 1222.48 1781.38 1222.03 1779.47 1222.03C1777.57 1222.03 1776.1 1222.48 1775.06 1223.37C1774.02 1224.28 1773.5 1225.6 1773.5 1227.31C1773.5 1228.2 1773.62 1229 1773.88 1229.68C1774.15 1230.39 1774.6 1231.12 1775.22 1231.87L1772.78 1232.88C1772.14 1232.19 1771.64 1231.36 1771.29 1230.4C1770.94 1229.46 1770.76 1228.4 1770.76 1227.21ZM1771 1235.77H1787.92V1243.16C1787.92 1245.02 1787.48 1246.45 1786.6 1247.46C1785.72 1248.48 1784.5 1248.99 1782.93 1248.99C1781.89 1248.99 1781 1248.76 1780.26 1248.3C1779.53 1247.85 1778.96 1247.2 1778.56 1246.35C1778.18 1245.51 1777.98 1244.51 1777.98 1243.35L1778.44 1243.69V1244.51C1778.44 1245.18 1778.26 1245.78 1777.91 1246.31C1777.56 1246.83 1777.02 1247.27 1776.3 1247.6L1771 1250.07V1246.67L1776.5 1244.17C1777.06 1243.95 1777.42 1243.6 1777.6 1243.14C1777.78 1242.69 1777.86 1242.15 1777.86 1241.51V1238.87H1771V1235.77ZM1780.14 1238.87V1242.66C1780.14 1243.75 1780.37 1244.57 1780.82 1245.13C1781.28 1245.71 1781.95 1245.99 1782.83 1245.99C1783.71 1245.99 1784.38 1245.71 1784.82 1245.13C1785.27 1244.57 1785.5 1243.75 1785.5 1242.66V1238.87H1780.14ZM1779.47 1251.95C1781.25 1251.95 1782.78 1252.27 1784.08 1252.91C1785.38 1253.57 1786.38 1254.5 1787.08 1255.72C1787.8 1256.94 1788.16 1258.38 1788.16 1260.06C1788.16 1261.73 1787.8 1263.17 1787.08 1264.38C1786.38 1265.6 1785.38 1266.54 1784.08 1267.19C1782.78 1267.86 1781.26 1268.2 1779.5 1268.2C1777.72 1268.2 1776.18 1267.86 1774.86 1267.19C1773.57 1266.54 1772.56 1265.6 1771.84 1264.38C1771.12 1263.17 1770.76 1261.73 1770.76 1260.06C1770.76 1258.38 1771.12 1256.94 1771.84 1255.72C1772.56 1254.52 1773.57 1253.59 1774.86 1252.94C1776.18 1252.28 1777.71 1251.95 1779.47 1251.95ZM1779.47 1255.19C1777.57 1255.19 1776.08 1255.6 1775.01 1256.42C1773.94 1257.23 1773.4 1258.45 1773.4 1260.06C1773.4 1261.63 1773.94 1262.84 1775.01 1263.69C1776.08 1264.54 1777.57 1264.96 1779.47 1264.96C1781.39 1264.96 1782.88 1264.54 1783.94 1263.69C1784.99 1262.86 1785.52 1261.65 1785.52 1260.06C1785.52 1258.45 1784.99 1257.23 1783.94 1256.42C1782.88 1255.6 1781.39 1255.19 1779.47 1255.19ZM1771 1271.4H1787.92V1274.49H1773.62V1282.46H1771V1271.4ZM1771 1284.83H1787.92V1287.92H1773.62V1295.89H1771V1284.83Z" fill="black"/>
<path d="M189.85 300.55C187.683 300.55 185.75 300.033 184.05 299C182.35 297.933 181.017 296.4 180.05 294.4C179.083 292.4 178.6 290.033 178.6 287.3C178.6 284.533 179.067 282.167 180 280.2C180.967 278.2 182.3 276.683 184 275.65C185.733 274.583 187.683 274.05 189.85 274.05C191.783 274.05 193.533 274.5 195.1 275.4C196.667 276.267 197.717 277.433 198.25 278.9H197.5V263.2H206.4V300H197.65V295.45H198.3C197.833 296.983 196.8 298.217 195.2 299.15C193.633 300.083 191.85 300.55 189.85 300.55ZM192.7 293.95C194.167 293.95 195.367 293.433 196.3 292.4C197.267 291.333 197.75 289.633 197.75 287.3C197.75 284.967 197.267 283.283 196.3 282.25C195.367 281.183 194.167 280.65 192.7 280.65C191.2 280.65 189.967 281.183 189 282.25C188.067 283.283 187.6 284.967 187.6 287.3C187.6 289.633 188.067 291.333 189 292.4C189.967 293.433 191.2 293.95 192.7 293.95ZM225.328 300.55C220.728 300.55 217.144 299.367 214.578 297C212.044 294.633 210.778 291.383 210.778 287.25C210.778 284.683 211.311 282.4 212.378 280.4C213.444 278.4 214.944 276.85 216.878 275.75C218.811 274.617 221.078 274.05 223.678 274.05C226.244 274.05 228.378 274.617 230.078 275.75C231.811 276.85 233.111 278.383 233.978 280.35C234.844 282.283 235.278 284.533 235.278 287.1V289H218.228V284.8H228.728L227.878 285.5C227.878 283.6 227.511 282.2 226.778 281.3C226.078 280.367 225.078 279.9 223.778 279.9C222.278 279.9 221.128 280.467 220.328 281.6C219.561 282.7 219.178 284.367 219.178 286.6V287.5C219.178 289.733 219.728 291.367 220.828 292.4C221.928 293.433 223.511 293.95 225.578 293.95C226.911 293.95 228.161 293.8 229.328 293.5C230.528 293.2 231.661 292.717 232.728 292.05L235.028 297.85C233.761 298.717 232.294 299.383 230.628 299.85C228.961 300.317 227.194 300.55 225.328 300.55ZM252.916 300.55C248.316 300.55 244.732 299.367 242.166 297C239.632 294.633 238.366 291.383 238.366 287.25C238.366 284.683 238.899 282.4 239.966 280.4C241.032 278.4 242.532 276.85 244.466 275.75C246.399 274.617 248.666 274.05 251.266 274.05C253.832 274.05 255.966 274.617 257.666 275.75C259.399 276.85 260.699 278.383 261.566 280.35C262.432 282.283 262.866 284.533 262.866 287.1V289H245.816V284.8H256.316L255.466 285.5C255.466 283.6 255.099 282.2 254.366 281.3C253.666 280.367 252.666 279.9 251.366 279.9C249.866 279.9 248.716 280.467 247.916 281.6C247.149 282.7 246.766 284.367 246.766 286.6V287.5C246.766 289.733 247.316 291.367 248.416 292.4C249.516 293.433 251.099 293.95 253.166 293.95C254.499 293.95 255.749 293.8 256.916 293.5C258.116 293.2 259.249 292.717 260.316 292.05L262.616 297.85C261.349 298.717 259.882 299.383 258.216 299.85C256.549 300.317 254.782 300.55 252.916 300.55ZM267.104 310.8V281.5C267.104 280.367 267.07 279.217 267.004 278.05C266.937 276.883 266.837 275.733 266.704 274.6H275.304L275.854 279.1H275.354C275.82 277.6 276.854 276.383 278.454 275.45C280.054 274.517 281.837 274.05 283.804 274.05C286.004 274.05 287.937 274.583 289.604 275.65C291.27 276.683 292.57 278.2 293.504 280.2C294.47 282.167 294.954 284.533 294.954 287.3C294.954 290.033 294.47 292.4 293.504 294.4C292.57 296.4 291.27 297.933 289.604 299C287.937 300.033 286.004 300.55 283.804 300.55C281.87 300.55 280.12 300.117 278.554 299.25C276.987 298.35 275.954 297.167 275.454 295.7H276.004V310.8H267.104ZM280.954 293.95C282.487 293.95 283.704 293.433 284.604 292.4C285.537 291.333 286.004 289.633 286.004 287.3C286.004 284.967 285.537 283.283 284.604 282.25C283.704 281.183 282.487 280.65 280.954 280.65C279.454 280.65 278.237 281.183 277.304 282.25C276.37 283.283 275.904 284.967 275.904 287.3C275.904 289.633 276.37 291.333 277.304 292.4C278.237 293.433 279.454 293.95 280.954 293.95ZM309.281 300.55C307.081 300.55 305.148 300.033 303.481 299C301.815 297.933 300.498 296.4 299.531 294.4C298.598 292.4 298.131 290.033 298.131 287.3C298.131 284.533 298.598 282.167 299.531 280.2C300.498 278.2 301.815 276.683 303.481 275.65C305.148 274.583 307.081 274.05 309.281 274.05C311.248 274.05 313.015 274.517 314.581 275.45C316.181 276.383 317.231 277.6 317.731 279.1H317.231L317.781 274.6H326.331C326.231 275.733 326.131 276.883 326.031 278.05C325.965 279.217 325.931 280.367 325.931 281.5V300H317.131L317.031 295.7H317.631C317.131 297.167 316.081 298.35 314.481 299.25C312.915 300.117 311.181 300.55 309.281 300.55ZM312.131 293.95C313.631 293.95 314.848 293.433 315.781 292.4C316.715 291.333 317.181 289.633 317.181 287.3C317.181 284.967 316.715 283.283 315.781 282.25C314.848 281.183 313.631 280.65 312.131 280.65C310.631 280.65 309.415 281.183 308.481 282.25C307.548 283.283 307.081 284.967 307.081 287.3C307.081 289.633 307.531 291.333 308.431 292.4C309.365 293.433 310.598 293.95 312.131 293.95ZM331.459 300V263.2H340.359V284.85H340.459L348.959 274.6H359.459L347.959 288.2V285.15L359.909 300H349.159L340.459 289.35H340.359V300H331.459ZM361.328 300V290.9H370.578V300H361.328Z" fill="black"/>
</g>
</g>
<defs>
<filter id="filter0_d_61_100" x="0" y="0" width="1918" height="1365" filterUnits="userSpaceOnUse" color-interpolation-filters="sRGB">
<feFlood flood-opacity="0" result="BackgroundImageFix"/>
<feColorMatrix in="SourceAlpha" type="matrix" values="0 0 0 0 0 0 0 0 0 0 0 0 0 0 0 0 0 0 127 0" result="hardAlpha"/>
<feMorphology radius="10" operator="dilate" in="SourceAlpha" result="effect1_dropShadow_61_100"/>
<feOffset dx="-30" dy="-30"/>
<feGaussianBlur stdDeviation="15"/>
<feComposite in2="hardAlpha" operator="out"/>
<feColorMatrix type="matrix" values="0 0 0 0 0 0 0 0 0 0 0 0 0 0 0 0 0 0 0.25 0"/>
<feBlend mode="normal" in2="BackgroundImageFix" result="effect1_dropShadow_61_100"/>
<feBlend mode="normal" in="SourceGraphic" in2="effect1_dropShadow_61_100" result="shape"/>
</filter>
<clipPath id="clip0_61_100">
<path d="M70 280C70 164.02 164.02 70 280 70H1908V1355H70V280Z" fill="white"/>
</clipPath>
</defs>
</svg>
