<svg width="342" height="307" viewBox="0 0 342 307" fill="none" xmlns="http://www.w3.org/2000/svg">
<path d="M197 105.454L187 95.4541" stroke="white" stroke-width="5" stroke-linecap="round"/>
<path d="M187.354 105L197.354 95" stroke="white" stroke-width="5" stroke-linecap="round"/>
<path d="M157 105.454L147 95.4541" stroke="white" stroke-width="5" stroke-linecap="round"/>
<path d="M147.354 105L157.354 95" stroke="white" stroke-width="5" stroke-linecap="round"/>
<!-- <path d="M25.3484 78.2625L170.543 2.81736L315.737 78.2625V228.714L170.543 304.159L25.3484 228.714V78.2625Z" stroke="white" stroke-width="6"/> -->
<path d="M121 73.18L221.195 73.18V108.995C221.195 116.342 219.987 122.432 217.57 127.265C215.25 132.098 211.915 135.917 207.565 138.72C203.312 141.523 198.188 143.505 192.195 144.665C186.298 145.825 179.773 146.405 172.62 146.405C165.37 146.405 158.603 145.825 152.32 144.665C146.133 143.602 140.672 141.668 135.935 138.865C131.198 136.062 127.525 132.243 124.915 127.41C122.305 122.577 121 116.438 121 108.995V73.18ZM131.295 84.78V108.995C131.295 114.215 132.407 118.468 134.63 121.755C136.853 125.042 139.898 127.603 143.765 129.44C147.632 131.277 152.03 132.533 156.96 133.21C161.89 133.983 167.11 134.37 172.62 134.37C178.033 134.37 183.06 133.983 187.7 133.21C192.34 132.533 196.4 131.277 199.88 129.44C203.36 127.603 206.067 125.042 208 121.755C209.933 118.468 210.9 114.215 210.9 108.995V84.78L131.295 84.78ZM121 166.495H221.195V178.095H174.795L175.375 194.48L221.195 219.71V233.05L170.88 204.775L121 234.645V220.87L165.08 194.625L164.5 178.095H121V166.495Z" fill="white"/>
</svg>
