<svg width="460" height="414" viewBox="0 0 460 414" fill="none" xmlns="http://www.w3.org/2000/svg">
<path d="M263.432 145.099L249.945 131.612" stroke="white" stroke-width="3" stroke-linecap="round"/>
<path d="M250.422 144.486L263.909 131" stroke="white" stroke-width="3" stroke-linecap="round"/>
<path d="M209.486 145.099L196 131.612" stroke="white" stroke-width="3" stroke-linecap="round"/>
<path d="M196.477 144.486L209.963 131" stroke="white" stroke-width="3" stroke-linecap="round"/>
<!-- <path d="M38.3142 108.055L230 8.45207L421.686 108.055V305.945L230 405.548L38.3142 305.945V108.055Z" stroke="white" stroke-width="15"/> -->
<path d="M161 102.8L299.2 102.8V152.2C299.2 162.333 297.533 170.733 294.2 177.4C291 184.067 286.4 189.333 280.4 193.2C274.533 197.067 267.467 199.8 259.2 201.4C251.067 203 242.067 203.8 232.2 203.8C222.2 203.8 212.867 203 204.2 201.4C195.667 199.933 188.133 197.267 181.6 193.4C175.067 189.533 170 184.267 166.4 177.6C162.8 170.933 161 162.467 161 152.2V102.8ZM175.2 118.8V152.2C175.2 159.4 176.733 165.267 179.8 169.8C182.867 174.333 187.067 177.867 192.4 180.4C197.733 182.933 203.8 184.667 210.6 185.6C217.4 186.667 224.6 187.2 232.2 187.2C239.667 187.2 246.6 186.667 253 185.6C259.4 184.667 265 182.933 269.8 180.4C274.6 177.867 278.333 174.333 281 169.8C283.667 165.267 285 159.4 285 152.2V118.8L175.2 118.8ZM161 231.511L299.2 231.511V247.511H235.2L236 270.111L299.2 304.911V323.311L229.8 284.311L161 325.511V306.511L221.8 270.311L221 247.511L161 247.511V231.511Z" fill="white"/>
</svg>
